<svg viewBox="0 0 32 32" xmlns="http://www.w3.org/2000/svg">
  <!-- White rounded background -->
  <rect width="32" height="32" fill="#ffffff" rx="6" ry="6"/>
  
  <!-- Grid pattern representing 2D space -->
  <g opacity="0.15">
    <line x1="8" y1="0" x2="8" y2="32" stroke="#333" stroke-width="0.5"/>
    <line x1="16" y1="0" x2="16" y2="32" stroke="#333" stroke-width="0.5"/>
    <line x1="24" y1="0" x2="24" y2="32" stroke="#333" stroke-width="0.5"/>
    <line x1="0" y1="8" x2="32" y2="8" stroke="#333" stroke-width="0.5"/>
    <line x1="0" y1="16" x2="32" y2="16" stroke="#333" stroke-width="0.5"/>
    <line x1="0" y1="24" x2="32" y2="24" stroke="#333" stroke-width="0.5"/>
  </g>
  
  <!-- Cooperators (blue cells) -->
  <rect x="2" y="2" width="4" height="4" fill="#4285f4" rx="0.5"/>
  <rect x="10" y="2" width="4" height="4" fill="#4285f4" rx="0.5"/>
  <rect x="18" y="10" width="4" height="4" fill="#4285f4" rx="0.5"/>
  <rect x="2" y="18" width="4" height="4" fill="#4285f4" rx="0.5"/>
  <rect x="26" y="26" width="4" height="4" fill="#4285f4" rx="0.5"/>
  
  <!-- Defectors (red cells) -->
  <rect x="26" y="2" width="4" height="4" fill="#ea4335" rx="0.5"/>
  <rect x="10" y="10" width="4" height="4" fill="#ea4335" rx="0.5"/>
  <rect x="2" y="26" width="4" height="4" fill="#ea4335" rx="0.5"/>
  <rect x="18" y="18" width="4" height="4" fill="#ea4335" rx="0.5"/>
  
  <!-- Central interaction symbol -->
  <g transform="translate(16, 16)">
    <!-- Cooperation symbol (handshake/link) -->
    <circle cx="-3" cy="0" r="2" fill="#4285f4" opacity="0.9"/>
    <circle cx="3" cy="0" r="2" fill="#ea4335" opacity="0.9"/>
    <path d="M -3 0 Q 0 -2 3 0 Q 0 2 -3 0" fill="none" stroke="#666" stroke-width="1" opacity="0.8"/>
  </g>
  
  <!-- Evolution arrows (representing GA dynamics) -->
  <g opacity="0.6">
    <path d="M 8 28 L 10 26 L 8 24" fill="none" stroke="#34a853" stroke-width="1"/>
    <path d="M 24 8 L 22 6 L 24 4" fill="none" stroke="#fbbc04" stroke-width="1"/>
  </g>
</svg>